<?xml version="1.0" encoding="UTF-8"?>
<svg id="Camada_2" data-name="Camada 2" xmlns="http://www.w3.org/2000/svg" viewBox="0 0 184.35 30.44">
  <defs>
    <style>
      .cls-1 {
        fill: #fe5f2d;
      }

      .cls-1, .cls-2 {
        stroke-width: 0px;
      }

      .cls-2 {
        fill: #000;
      }
    </style>
  </defs>
  <g id="Design_PC" data-name="Design / PC">
    <g>
      <g>
        <path class="cls-1" d="M150.54,1.94h-8.45s-8.86,26.78-8.86,26.78h4.43s2.25-7.08,2.25-7.08l.39-1.23h11.96l.39,1.23,2.25,7.08h4.53s-8.9-26.78-8.9-26.78ZM145.7,3.45h1.2s4.22,13.33,4.22,13.33h-9.65l4.24-13.33Z"/>
        <path class="cls-1" d="M130.44,4.2c-1.86-1.56-4.45-2.34-7.77-2.34h-9.9v26.87h4.04l.05-8.32h5.86c3.33,0,5.68-1.16,7.53-2.73,1.86-1.57,2.98-3.85,2.98-6.64s-.93-5.27-2.78-6.83ZM127.31,15.25c-1.2,1.02-2.89,1.54-5.07,1.54h-5.38l-.05-11.24h5.38c2.17,0,4.28.26,5.48,1.29,1.2,1.02,1.52,2.31,1.52,4.15s-.68,3.24-1.89,4.26Z"/>
        <g>
          <polygon class="cls-1" points="175.24 22.69 175.23 22.69 175.23 22.7 175.24 22.69"/>
          <polygon class="cls-1" points="184.34 10.94 184.35 1.96 163.49 1.95 163.49 6.15 182.93 6.16 182.93 6.72 163.5 19.72 163.49 28.71 184.34 28.72 184.34 24.53 164.92 24.53 164.92 23.99 184.34 10.94"/>
        </g>
        <path class="cls-1" d="M77.23,22.19c-1.79,1.82-4.28,2.95-7.03,2.95-5.45,0-9.41-4.42-9.41-9.87s3.96-9.87,9.41-9.87c2.76,0,5.25,1.14,7.05,2.96l2.86-2.87c-2.53-2.56-6.04-4.15-9.93-4.15-7.71,0-13.95,6.25-13.95,13.95s6.25,13.95,13.95,13.95c3.89,0,7.4-1.59,9.93-4.15l-2.88-2.89Z"/>
        <path class="cls-1" d="M99.9,1.94h-8.45s-8.86,26.78-8.86,26.78h4.43s2.25-7.08,2.25-7.08l.39-1.23h11.96l.39,1.23,2.25,7.08h4.53S99.9,1.94,99.9,1.94ZM95.06,3.45h1.2s4.22,13.33,4.22,13.33h-9.65l4.24-13.33Z"/>
      </g>
      <g>
        <path class="cls-2" d="M42.62,12.18L30.44,0c-2.38,0-3.71,0-6.09,0h0s12.42,12.42,12.42,12.42v.63H15.22v4.33h21.55v.65l-12.42,12.42h0c2.38,0,3.71,0,6.09,0l12.18-12.18h0c0-2.38,0-3.71,0-6.09Z"/>
        <path class="cls-2" d="M4.33,16.5v-2.56L18.27,0h0C15.89,0,14.56,0,12.18,0L0,12.18c0,.31,0,5.77,0,6.09h0s12.18,12.18,12.18,12.18c2.38,0,3.71,0,6.09,0h0s-13.94-13.94-13.94-13.94Z"/>
      </g>
    </g>
  </g>
</svg>