<svg width="180" height="46" viewBox="0 0 180 46" fill="none" xmlns="http://www.w3.org/2000/svg">
  <g clip-path="url(#clip0_2_17)">
    <path fill-rule="evenodd" clip-rule="evenodd"
      d="M102.19 26.73H98.37L106.91 6.60999H110.92L119.64 26.73H115.63L113.33 21.24H106.65L107.93 18.01H111.98L108.82 10.45L102.19 26.73ZM77.97 26.73V6.60999H81.7L92.32 21.27V6.60999H95.91V26.73H92.18L81.56 11.76V26.73H77.97ZM73.75 6.60999V26.73H70.03V6.60999H73.75ZM67.91 6.60999V9.84999H62.14V26.73H58.41V9.84999H52.64V6.60999H67.91ZM36.96 26.73H33.13L41.67 6.60999H45.68L54.4 26.73H50.39L48.1 21.24H41.42L42.7 18.01H46.75L43.59 10.45L36.96 26.73ZM23.39 6.60999V23.5H31.38V26.74H19.67V6.60999H23.4H23.39Z"
      fill="#FF6634" />
    <path fill-rule="evenodd" clip-rule="evenodd"
      d="M171.68 6.60997V23.5H179.67V26.74H167.96V6.60997H171.69H171.68ZM146.43 18.82V6.60997H150.16V18.82C150.16 22.03 151.8 23.63 155.08 23.63C158.36 23.63 160 22.03 160 18.82V6.60997H163.73V18.82C163.73 24.19 160.85 26.87 155.08 26.87C149.31 26.87 146.43 24.19 146.43 18.82ZM128.07 25.89V22.51C130.08 23.26 132.37 23.63 134.91 23.63C138 23.63 139.54 22.6 139.54 20.54C139.54 19.04 138.59 18.29 136.7 18.29H133.55C129.43 18.29 127.38 16.42 127.38 12.66C127.38 8.53997 130.31 6.46997 136.17 6.46997C138.42 6.46997 140.55 6.79997 142.57 7.44997V10.83C140.55 10.08 138.42 9.70997 136.17 9.70997C132.79 9.70997 131.1 10.7 131.1 12.66C131.1 14.16 131.92 14.91 133.55 14.91H136.7C141.08 14.91 143.27 16.79 143.27 20.54C143.27 24.76 140.48 26.87 134.91 26.87C132.37 26.87 130.09 26.54 128.07 25.89Z"
      fill="#003B52" />
    <path fill-rule="evenodd" clip-rule="evenodd"
      d="M92.61 37.64H91.63L94.71 30.32H95.75L98.84 37.64H97.8L96.86 35.34H94.46L94.72 34.57H96.54L95.19 31.26L92.6 37.64H92.61ZM85.76 37.64V30.32H88.85C90.23 30.32 90.92 30.91 90.92 32.07C90.92 33.02 90.25 33.73 88.9 34.18L91.39 37.63H90.15L87.84 34.34V33.72C89.22 33.5 89.92 32.96 89.92 32.11C89.92 31.43 89.53 31.1 88.76 31.1H86.69V37.63H85.75L85.76 37.64ZM77.07 33.99C77.07 31.51 78.29 30.27 80.71 30.27C83.13 30.27 84.29 31.51 84.29 33.99C84.29 36.47 83.09 37.69 80.71 37.69C78.33 37.69 77.07 36.46 77.07 33.99ZM78.05 33.96C78.05 35.93 78.93 36.92 80.7 36.92C82.47 36.92 83.29 35.93 83.29 33.96C83.29 31.99 82.42 31.04 80.7 31.04C78.98 31.04 78.05 32.01 78.05 33.96ZM69.71 37.64V30.32H72.35C74.75 30.32 75.95 31.48 75.95 33.78C75.95 36.35 74.75 37.64 72.35 37.64H69.71ZM72.35 36.87C74.12 36.87 75.01 35.84 75.01 33.78C75.01 31.98 74.12 31.09 72.35 31.09H70.65V36.87H72.35ZM67.84 30.32V37.64H66.9V30.32H67.84ZM59.05 34.82V30.33H59.99V34.82C59.99 36.23 60.68 36.93 62.07 36.93C63.46 36.93 64.15 36.23 64.15 34.82V30.33H65.09V34.82C65.09 36.74 64.08 37.7 62.07 37.7C60.06 37.7 59.05 36.74 59.05 34.82ZM55.28 36.87C56.14 36.87 56.58 36.43 56.58 35.54C56.58 34.65 56 34.25 54.84 34.25H54.43V33.63C55.82 33.44 56.51 32.94 56.51 32.12C56.51 31.44 56.13 31.1 55.35 31.1H53.28V36.88H55.27L55.28 36.87ZM52.35 37.64V30.32H55.44C56.82 30.32 57.51 30.89 57.51 32.02C57.51 32.86 57.06 33.45 56.16 33.81C57.12 33.99 57.6 34.54 57.6 35.47C57.6 36.92 56.85 37.63 55.33 37.63H52.35V37.64ZM50.48 30.32V37.64H49.54V30.32H50.48ZM42.77 37.64V30.32H45.86C47.24 30.32 47.93 30.91 47.93 32.07C47.93 33.02 47.26 33.73 45.91 34.18L48.4 37.63H47.16L44.85 34.34V33.72C46.23 33.5 46.92 32.96 46.92 32.11C46.92 31.43 46.54 31.1 45.77 31.1H43.7V37.63H42.76L42.77 37.64ZM41.66 30.32V31.09H39.38V37.64H38.44V31.09H36.16V30.32H41.66ZM30.13 37.38V36.51C30.89 36.78 31.71 36.92 32.59 36.92C33.84 36.92 34.46 36.46 34.46 35.54C34.46 34.76 34 34.36 33.08 34.36H32.15C30.63 34.36 29.88 33.7 29.88 32.36C29.88 30.96 30.85 30.26 32.79 30.26C33.63 30.26 34.42 30.36 35.15 30.57V31.44C34.43 31.17 33.64 31.03 32.79 31.03C31.47 31.03 30.81 31.47 30.81 32.36C30.81 33.15 31.25 33.54 32.15 33.54H33.08C34.63 33.54 35.4 34.21 35.4 35.54C35.4 36.97 34.47 37.69 32.59 37.69C31.71 37.69 30.89 37.59 30.13 37.38ZM28.35 30.32V37.64H27.41V30.32H28.35ZM19.66 37.64V30.32H22.3C24.7 30.32 25.9 31.48 25.9 33.78C25.9 36.35 24.7 37.64 22.3 37.64H19.66ZM174.35 37.38V36.51C175.12 36.78 175.94 36.92 176.83 36.92C178.09 36.92 178.72 36.46 178.72 35.54C178.72 34.76 178.26 34.36 177.33 34.36H176.39C174.86 34.36 174.09 33.7 174.09 32.36C174.09 30.96 175.07 30.26 177.03 30.26C177.88 30.26 178.67 30.36 179.41 30.57V31.44C178.67 31.17 177.88 31.03 177.03 31.03C175.7 31.03 175.03 31.47 175.03 32.36C175.03 33.15 175.48 33.54 176.38 33.54H177.32C178.88 33.54 179.65 34.21 179.65 35.54C179.65 36.97 178.71 37.69 176.82 37.69C175.93 37.69 175.1 37.59 174.34 37.38H174.35ZM165.68 33.99C165.68 31.51 166.91 30.27 169.36 30.27C171.81 30.27 172.97 31.51 172.97 33.99C172.97 36.47 171.77 37.69 169.36 37.69C166.95 37.69 165.68 36.46 165.68 33.99ZM166.68 33.96C166.68 35.93 167.57 36.92 169.36 36.92C171.15 36.92 171.98 35.93 171.98 33.96C171.98 31.99 171.11 31.04 169.36 31.04C167.61 31.04 166.68 32.01 166.68 33.96ZM164.81 30.32V31.09H162.51V37.64H161.57V31.09H159.26V30.32H164.81ZM151.81 37.64V30.32H152.76L157.24 36.22V30.32H158.13V37.64H157.19L152.71 31.7V37.64H151.81ZM150.3 30.32V31.09H146.46V33.54H150.12V34.31H146.46V36.87H150.37V37.64H145.51V30.32H150.3ZM136.1 37.64V30.32H137.3L139.98 36.43L142.62 30.32H143.77V37.64H142.92V31.64L140.32 37.64H139.57L136.93 31.64V37.64H136.09H136.1ZM134.21 30.32V37.64H133.27V30.32H134.21ZM128.16 30.32V36.87H131.99V37.64H127.22V30.32H128.17H128.16ZM119.92 37.64H118.94L122.05 30.32H123.1L126.22 37.64H125.17L124.22 35.34H121.8L122.06 34.57H123.9L122.54 31.26L119.92 37.64ZM115.08 30.32V31.09H111.24V33.54H114.9V34.31H111.24V36.87H115.15V37.64H110.29V30.32H115.07H115.08ZM102.63 37.64V30.32H105.29C107.71 30.32 108.92 31.48 108.92 33.78C108.92 36.35 107.71 37.64 105.29 37.64H102.63ZM105.28 36.87C107.07 36.87 107.97 35.84 107.97 33.78C107.97 31.98 107.07 31.09 105.28 31.09H103.57V36.87H105.28ZM22.3 36.87C24.07 36.87 24.96 35.84 24.96 33.78C24.96 31.98 24.07 31.09 22.3 31.09H20.6V36.87H22.3Z"
      fill="#003B52" />
    <path fill-rule="evenodd" clip-rule="evenodd"
      d="M23.5 2.63H6.81C7.53 3.35 8.22 4.11 8.84 4.91C10.26 6.75 11.26 8.81 11.27 11.11C11.28 14.8 9.96 17 8.59 19.31C7.22 21.6 5.79 24.02 5.92 28.4C5.94 29.06 6.05 29.81 6.25 30.62C6.9 33.26 8.53 36.34 11.39 38.71C14.27 41.1 18.39 42.78 24.04 42.61C26.09 42.55 28.35 42.24 30.83 41.63L31.46 44.18C28.81 44.84 26.36 45.17 24.11 45.24C17.75 45.44 13.04 43.49 9.71 40.73C6.38 37.95 4.46 34.35 3.7 31.24C3.46 30.27 3.33 29.33 3.3 28.47C3.14 23.33 4.78 20.58 6.34 17.96C7.52 15.97 8.66 14.07 8.65 11.1C8.65 9.48 7.87 7.94 6.77 6.51C5.59 4.98 4.01 3.55 2.59 2.28L0 0H23.5V2.63Z"
      fill="#003B52" />
  </g>
  <defs>
    <clipPath id="clip0_2_17">
      <rect width="179.67" height="45.26" fill="orange" />
    </clipPath>
  </defs>
</svg>